<?xml version="1.0" standalone="no"?>
<!DOCTYPE svg PUBLIC "-//W3C//DTD SVG 20010904//EN"
 "http://www.w3.org/TR/2001/REC-SVG-20010904/DTD/svg10.dtd">
<svg version="1.0" xmlns="http://www.w3.org/2000/svg"
 width="800.000000pt" height="800.000000pt" viewBox="0 0 800.000000 800.000000"
 preserveAspectRatio="xMidYMid meet">
<metadata>
Created by potrace 1.14, written by Peter Selinger 2001-2017
</metadata>
<g transform="translate(0.000000,800.000000) scale(0.100000,-0.100000)"
fill="#000000" stroke="none">
<path d="M3610 7986 c-1105 -116 -2091 -659 -2767 -1523 -441 -563 -715 -1220
-814 -1948 -26 -193 -37 -633 -20 -838 93 -1119 646 -2144 1528 -2834 563
-441 1220 -715 1948 -814 193 -26 633 -37 838 -20 1119 93 2144 646 2834 1528
441 563 715 1220 814 1948 26 193 37 633 20 838 -93 1119 -646 2144 -1528
2834 -563 441 -1217 714 -1948 814 -193 27 -712 35 -905 15z m3277 -2828 c-3
-846 -4 -876 -24 -959 -51 -205 -141 -368 -276 -496 -119 -113 -251 -179 -422
-214 -261 -51 -507 -26 -720 75 -321 152 -480 374 -524 736 -7 50 -11 323 -11
677 l0 593 -234 0 -235 0 -4 -637 c-3 -602 -5 -643 -24 -729 -66 -288 -237
-521 -466 -634 -286 -141 -662 -144 -952 -6 -321 152 -480 374 -524 731 -7 56
-11 312 -11 683 l0 592 -730 0 -730 0 0 230 0 230 2946 0 2945 0 -4 -872z
m-3453 -3072 c891 -613 1102 -755 1112 -744 6 7 202 290 434 628 233 338 426
619 430 623 9 11 290 -181 289 -197 0 -15 -1093 -1599 -1102 -1598 -10 1
-2495 1711 -2502 1721 -7 12 218 332 230 327 5 -2 505 -344 1109 -760z"/>
<path d="M2847 5563 c-11 -10 -8 -893 3 -1023 28 -345 169 -543 423 -597 102
-21 330 -13 407 15 94 33 142 62 200 121 70 70 115 160 143 290 20 91 21 125
22 646 l0 550 -596 3 c-327 1 -599 -1 -602 -5z"/>
<path d="M5302 4998 c4 -562 4 -574 27 -648 73 -243 190 -363 394 -407 102
-21 330 -13 407 15 94 33 142 62 200 121 71 71 114 158 143 287 20 95 21 122
22 649 l0 550 -598 3 -598 2 3 -572z"/>
</g>
</svg>
